<?xml version="1.0" ?><svg style="enable-background:new 0 0 24 24;" version="1.1" viewBox="0 0 24 24" xml:space="preserve" xmlns="http://www.w3.org/2000/svg" xmlns:xlink="http://www.w3.org/1999/xlink"><style type="text/css">
	.st0{display:none;}
</style><g class="st0" id="grid"/><g id="icon"><path d="M5.5,7.5h4C9.776,7.5,10,7.276,10,7S9.776,6.5,9.5,6.5h-4C2.467,6.5,0,8.968,0,12s2.467,5.5,5.5,5.5h4   c3.033,0,5.5-2.468,5.5-5.5c0-0.276-0.224-0.5-0.5-0.5S14,11.724,14,12c0,2.481-2.019,4.5-4.5,4.5h-4C3.019,16.5,1,14.481,1,12   S3.019,7.5,5.5,7.5z" fill="#ffffff"/><path d="M18.5,6.5h-4C11.467,6.5,9,8.968,9,12c0,0.276,0.224,0.5,0.5,0.5S10,12.276,10,12c0-2.481,2.019-4.5,4.5-4.5h4   c2.481,0,4.5,2.019,4.5,4.5s-2.019,4.5-4.5,4.5h-4c-0.276,0-0.5,0.224-0.5,0.5s0.224,0.5,0.5,0.5h4c3.033,0,5.5-2.468,5.5-5.5   S21.533,6.5,18.5,6.5z"  fill="#ffffff"     /></g></svg>
